<svg width="24" height="24" viewBox="0 0 24 24" fill="none" xmlns="http://www.w3.org/2000/svg">
<circle cx="12" cy="12" r="12" fill="#7E6EE2"/>
<path d="M11.9998 7.75738L13.2726 9.03017C13.5059 9.26351 13.5059 9.64535 13.2726 9.8787C13.0393 10.112 12.6574 10.112 12.4241 9.8787L11.1513 8.60591C10.4512 7.90587 9.30573 7.90587 8.6057 8.6059C7.90566 9.30594 7.90566 10.4515 8.6057 11.1515L9.87849 12.4243C10.1118 12.6576 10.1118 13.0395 9.87849 13.2728C9.64514 13.5062 9.2633 13.5062 9.02996 13.2728L7.75717 12C6.5862 10.829 6.5862 8.92835 7.75717 7.75738C8.92814 6.58641 10.8288 6.58641 11.9998 7.75738ZM13.6969 13.6971C13.4635 13.9304 13.0817 13.9304 12.8483 13.6971L10.3028 11.1515C10.0694 10.9181 10.0694 10.5363 10.3028 10.303C10.5361 10.0696 10.9179 10.0696 11.1513 10.303L13.6969 12.8485C13.9302 13.0819 13.9302 13.4637 13.6969 13.6971ZM11.5755 14.1213L12.8483 15.3941C13.5484 16.0942 14.6939 16.0942 15.3939 15.3941C16.094 14.6941 16.094 13.5486 15.3939 12.8485L14.1211 11.5758C13.8878 11.3424 13.8878 10.9606 14.1211 10.7272C14.3545 10.4939 14.7363 10.4939 14.9697 10.7272L16.2424 12C17.4134 13.171 17.4134 15.0717 16.2424 16.2427C15.0715 17.4136 13.1708 17.4136 11.9998 16.2427L10.727 14.9699C10.4937 14.7365 10.4937 14.3547 10.727 14.1213C10.9604 13.888 11.3422 13.888 11.5755 14.1213Z" fill="white"/>
</svg>
