<svg width="24" height="24" viewBox="0 0 24 24" fill="none" xmlns="http://www.w3.org/2000/svg">
<circle cx="12" cy="12" r="11.75" fill="white" stroke="#DDDDDD" stroke-width="0.5"/>
<path fill-rule="evenodd" clip-rule="evenodd" d="M12.0001 3.6001C7.2677 3.6001 3.6001 7.06658 3.6001 11.7483C3.6001 14.1973 4.60404 16.3133 6.23841 17.7753C6.37531 17.8987 6.45813 18.0694 6.46489 18.2536L6.51052 19.7477C6.52573 20.2243 7.01756 20.5336 7.45362 20.3426L9.1201 19.6074C9.26207 19.5449 9.41925 19.5331 9.56798 19.5736C10.3336 19.7849 11.15 19.8964 12.0001 19.8964C16.7325 19.8964 20.4001 16.43 20.4001 11.7483C20.4001 7.06658 16.7325 3.6001 12.0001 3.6001Z" fill="url(#paint0_radial_943_3793)"/>
<path fill-rule="evenodd" clip-rule="evenodd" d="M6.95655 14.1316L9.42416 10.2172C9.81627 9.59523 10.658 9.43974 11.2461 9.88086L13.2084 11.353C13.3892 11.4882 13.636 11.4865 13.8151 11.3513L16.4653 9.34002C16.8185 9.07129 17.2816 9.49551 17.0433 9.87072L14.5774 13.7834C14.1853 14.4054 13.3436 14.5609 12.7554 14.1197L10.7932 12.6476C10.6123 12.5124 10.3656 12.5141 10.1864 12.6493L7.53458 14.6623C7.18134 14.931 6.71824 14.5068 6.95655 14.1316Z" fill="white"/>
<defs>
<radialGradient id="paint0_radial_943_3793" cx="0" cy="0" r="1" gradientUnits="userSpaceOnUse" gradientTransform="translate(6.4141 20.3994) scale(18.48 18.4793)">
<stop stop-color="#0099FF"/>
<stop offset="0.6" stop-color="#A033FF"/>
<stop offset="0.9" stop-color="#FF5280"/>
<stop offset="1" stop-color="#FF7061"/>
</radialGradient>
</defs>
</svg>
