<svg width="24" height="24" viewBox="0 0 24 24" fill="none" xmlns="http://www.w3.org/2000/svg">
<circle cx="12" cy="12" r="12" fill="url(#paint0_linear_943_3818)"/>
<path d="M8.76221 13.0951L10.2759 17.2948C10.2759 17.2948 10.4651 17.6877 10.6677 17.6877C10.8704 17.6877 13.8844 14.5446 13.8844 14.5446L17.236 8.05542L8.81622 12.0111L8.76221 13.0951Z" fill="#C8DAEA"/>
<path d="M10.7693 14.1721L10.4787 17.2676C10.4787 17.2676 10.3571 18.2161 11.3031 17.2676C12.2491 16.3191 13.1546 15.5877 13.1546 15.5877" fill="#A9C6D8"/>
<path d="M8.78958 13.245L5.67597 12.2281C5.67597 12.2281 5.30385 12.0767 5.42367 11.7336C5.44834 11.6628 5.4981 11.6026 5.64694 11.4991C6.33683 11.0171 18.4163 6.66498 18.4163 6.66498C18.4163 6.66498 18.7574 6.54977 18.9585 6.6264C19.0083 6.64184 19.0531 6.67025 19.0883 6.70873C19.1235 6.74721 19.1479 6.79438 19.1589 6.8454C19.1807 6.93553 19.1898 7.02825 19.1859 7.12089C19.185 7.20104 19.1753 7.27532 19.168 7.3918C19.0944 8.58169 16.8928 17.4622 16.8928 17.4622C16.8928 17.4622 16.7611 17.9818 16.2891 17.9996C16.1731 18.0034 16.0576 17.9837 15.9494 17.9417C15.8411 17.8998 15.7424 17.8364 15.6592 17.7554C14.733 16.9568 11.532 14.8004 10.8247 14.3262C10.8088 14.3153 10.7953 14.3011 10.7853 14.2845C10.7753 14.268 10.7689 14.2495 10.7667 14.2303C10.7568 14.1803 10.811 14.1184 10.811 14.1184C10.811 14.1184 16.3848 9.15207 16.5331 8.63071C16.5446 8.59032 16.5012 8.57039 16.443 8.58808C16.0728 8.7246 9.65522 12.7871 8.94693 13.2354C8.89595 13.2509 8.84206 13.2542 8.78958 13.245Z" fill="white"/>
<defs>
<linearGradient id="paint0_linear_943_3818" x1="12" y1="24" x2="12" y2="0" gradientUnits="userSpaceOnUse">
<stop stop-color="#1D93D2"/>
<stop offset="1" stop-color="#38B0E3"/>
</linearGradient>
</defs>
</svg>
