<svg width="24" height="24" viewBox="0 0 24 24" fill="none" xmlns="http://www.w3.org/2000/svg">
<circle cx="12" cy="12" r="12" fill="#7C529E"/>
<path fill-rule="evenodd" clip-rule="evenodd" d="M17.4324 12.4356C17.2757 12.4356 17.1485 12.3089 17.1476 12.1519C17.1337 10.4035 16.6317 9.069 15.612 8.07029C14.6045 7.08721 13.3311 6.58222 11.8276 6.5718C11.6701 6.57007 11.5437 6.44165 11.5445 6.28373C11.5454 6.12668 11.6735 6 11.8293 6H11.8319C13.4878 6.01128 14.8936 6.57094 16.0102 7.66161C17.1286 8.75576 17.7033 10.2655 17.7172 12.1475C17.7189 12.3055 17.5925 12.4347 17.435 12.4356H17.4324ZM15.9268 11.8477H15.9337C16.0878 11.8477 16.215 11.7236 16.2185 11.5683C16.2436 10.4516 15.9069 9.50408 15.2178 8.75006C14.5323 7.99865 13.5689 7.57261 12.3527 7.48324C12.196 7.47196 12.0593 7.58997 12.048 7.74789C12.0359 7.90494 12.1545 8.04203 12.3112 8.05331C13.3923 8.13314 14.2051 8.48715 14.7972 9.13618C15.3918 9.78694 15.6706 10.5783 15.6481 11.5553C15.6446 11.7132 15.7692 11.8442 15.9268 11.8477ZM14.1851 11.0847C14.1929 11.2374 14.3193 11.3563 14.4699 11.3563H14.4846C14.6413 11.3485 14.7625 11.214 14.7547 11.056C14.6924 9.78923 14.0094 9.0838 12.7802 9.01786C12.6227 9.00832 12.4894 9.13066 12.4807 9.28771C12.4721 9.44563 12.5924 9.58012 12.7499 9.5888C13.6813 9.63912 14.1375 10.1146 14.1851 11.0847ZM13.439 14.6672C13.2226 14.9353 12.8218 14.8998 12.8218 14.8998C9.89089 14.1501 9.10751 11.1765 9.10751 11.1765C9.10751 11.1765 9.07289 10.7748 9.3395 10.5587L9.86925 10.1362C10.1324 9.93401 10.2995 9.44204 10.032 8.96047C9.88136 8.69236 9.58533 8.21253 9.36373 7.91144C9.13002 7.59214 8.58729 6.93877 8.58469 6.93704C8.32328 6.62467 7.93808 6.55352 7.53125 6.76523C7.53038 6.76523 7.52887 6.76567 7.52735 6.7661C7.52584 6.76654 7.52432 6.76697 7.52346 6.76697C7.13913 6.98476 6.77991 7.2763 6.44405 7.64507C6.44298 7.64776 6.4419 7.64878 6.44062 7.65C6.43984 7.65074 6.43898 7.65156 6.43799 7.65287C6.1861 7.9557 6.04328 8.25331 6.00865 8.54485C6.00173 8.57956 5.99827 8.62208 6.00086 8.67501C5.99913 8.80256 6.01817 8.92924 6.05886 9.05418L6.07271 9.06373C6.19909 9.51319 6.5159 10.2646 7.20405 11.5149C7.6507 12.328 8.10688 13.0039 8.56132 13.5748C8.79849 13.8759 9.06856 14.1865 9.38104 14.5015C9.39143 14.5119 9.40182 14.5223 9.41221 14.5319L9.41337 14.5331C9.42331 14.5439 9.43254 14.554 9.44337 14.564L9.47453 14.5952L9.50569 14.6264C9.81991 14.9397 10.1289 15.2095 10.4293 15.4473C10.9989 15.9028 11.6732 16.3601 12.4842 16.8087C13.7324 17.4985 14.4812 17.8161 14.9304 17.9427L14.94 17.9566C15.0646 17.9974 15.191 18.0156 15.3174 18.0147C15.3702 18.0165 15.4126 18.0139 15.4472 18.0069C15.7389 17.9714 16.0358 17.8282 16.337 17.5757C16.3394 17.5748 16.3405 17.5735 16.3415 17.5724C16.3424 17.5714 16.3433 17.5704 16.3448 17.5696C16.7127 17.2338 17.0036 16.8729 17.2208 16.4885C17.2208 16.4871 17.2216 16.4851 17.2223 16.4833C17.2229 16.4819 17.2234 16.4806 17.2234 16.4798C17.4346 16.0729 17.3628 15.6868 17.052 15.4238C17.0503 15.4221 16.3985 14.8781 16.0791 14.6429C15.7787 14.4217 15.3 14.1249 15.0326 13.9731C14.553 13.705 14.0622 13.8733 13.8597 14.1362L13.439 14.6672Z" fill="white"/>
</svg>
