<svg width="24" height="24" viewBox="0 0 24 24" fill="none" xmlns="http://www.w3.org/2000/svg">
<circle cx="12" cy="12" r="12" fill="url(#paint0_linear_943_3813)"/>
<path fill-rule="evenodd" clip-rule="evenodd" d="M15.8737 13.4294C15.695 13.3401 14.8163 12.9088 14.6524 12.8493C14.4886 12.7898 14.3695 12.7601 14.2504 12.9385C14.1312 13.117 13.7887 13.5186 13.6844 13.6376C13.5802 13.7566 13.476 13.7715 13.2972 13.6822C13.1185 13.593 12.5427 13.4047 11.86 12.7973C11.3287 12.3246 10.97 11.7406 10.8657 11.5622C10.7615 11.3837 10.8547 11.2872 10.9442 11.1983C11.0245 11.1184 11.1229 10.9901 11.2122 10.8859C11.3016 10.7818 11.3314 10.7075 11.3909 10.5885C11.4505 10.4695 11.4207 10.3654 11.376 10.2761C11.3314 10.1869 10.9739 9.3093 10.825 8.95231C10.6799 8.60466 10.5326 8.65171 10.4229 8.64624C10.3187 8.64107 10.1995 8.63996 10.0803 8.63996C9.9612 8.63996 9.7676 8.6846 9.60375 8.86306C9.43994 9.04156 8.97826 9.47294 8.97826 10.3505C8.97826 11.228 9.61867 12.0759 9.708 12.1949C9.79739 12.3139 10.9683 14.1148 12.7611 14.887C13.1875 15.0707 13.5204 15.1804 13.7799 15.2626C14.2081 15.3983 14.5977 15.3792 14.9057 15.3332C15.249 15.2821 15.9631 14.9019 16.112 14.4854C16.2609 14.069 16.2609 13.712 16.2162 13.6376C16.1716 13.5633 16.0524 13.5186 15.8737 13.4294ZM12.6127 17.8712H12.6103C11.5435 17.8708 10.4972 17.5849 9.58445 17.0445L9.36735 16.916L7.11727 17.5048L7.71786 15.3163L7.5765 15.0919C6.98139 14.1476 6.66711 13.0562 6.66754 11.9356C6.66883 8.66557 9.33579 6.00519 12.6151 6.00519C14.203 6.00581 15.6956 6.62354 16.8181 7.74454C17.9405 8.86558 18.5583 10.3557 18.5577 11.9404C18.5564 15.2106 15.8895 17.8712 12.6127 17.8712ZM17.6724 6.89269C16.322 5.54393 14.526 4.80079 12.6126 4.80005C8.67018 4.80005 5.46149 8.00084 5.45989 11.9351C5.45937 13.1927 5.78874 14.4204 6.41463 15.5024L5.3999 19.2L9.19167 18.2078C10.2364 18.7763 11.4126 19.0758 12.6098 19.0763H12.6127C16.5548 19.0763 19.7638 15.8751 19.7654 11.9408C19.7661 10.0342 19.0228 8.24142 17.6724 6.89269Z" fill="white"/>
<defs>
<linearGradient id="paint0_linear_943_3813" x1="31.8" y1="-13.8" x2="5.1" y2="22.5" gradientUnits="userSpaceOnUse">
<stop offset="0.0297887" stop-color="#61FD7D"/>
<stop offset="1" stop-color="#25CF43"/>
</linearGradient>
</defs>
</svg>
