<svg width="24" height="24" viewBox="0 0 24 24" fill="none" xmlns="http://www.w3.org/2000/svg">
<circle cx="12" cy="12" r="11.75" fill="white" stroke="#DDDDDD" stroke-width="0.5"/>
<path fill-rule="evenodd" clip-rule="evenodd" d="M12.0001 20.4001C16.6393 20.4001 20.4001 16.6393 20.4001 12.0001C20.4001 7.36091 16.6393 3.6001 12.0001 3.6001C7.36091 3.6001 3.6001 7.36091 3.6001 12.0001C3.6001 14.3728 4.58386 16.5158 6.16574 18.0433C6.32819 18.3681 6.23792 19.0401 5.01604 19.9494C4.86629 20.0609 4.92467 20.2934 5.11129 20.2976C5.94679 20.3167 7.17452 20.2246 8.00667 19.9868C8.45094 19.8599 8.7782 19.8499 9.10979 19.8896C10.011 20.2199 10.9845 20.4001 12.0001 20.4001Z" fill="#0068FF"/>
<path fill-rule="evenodd" clip-rule="evenodd" d="M12.2474 10.8477C12.0883 10.8804 11.9913 10.999 11.8982 11.1257C11.4133 10.68 10.8779 10.6514 10.3503 10.9826C9.71407 11.3751 9.47742 12.013 9.55889 12.7613C9.63648 13.4523 9.91968 14.0206 10.6102 14.2578C11.0409 14.405 11.4405 14.3518 11.7935 14.0492C11.8866 13.9716 11.9138 13.9879 11.9797 14.0738C12.1077 14.2496 12.3289 14.3109 12.5228 14.2332C12.7129 14.1719 12.8448 13.9838 12.8448 13.7712C12.8526 12.9534 12.8565 12.1357 12.8448 11.3179C12.841 10.9908 12.5539 10.7822 12.2474 10.8477ZM10.6878 13.1129C10.587 12.9698 10.5326 12.7981 10.5249 12.6181C10.521 12.0416 10.8197 11.6941 11.2465 11.7227C11.4288 11.7268 11.5995 11.8208 11.7081 11.9803C11.9254 12.291 11.9254 12.8021 11.7081 13.1129C11.6693 13.1661 11.6267 13.211 11.5801 13.2478C11.2969 13.4686 10.8973 13.4073 10.6878 13.1129ZM16.1424 10.7782C15.2113 10.8068 14.5557 11.5918 14.5867 12.6427C14.5712 13.6649 15.3743 14.4377 16.3868 14.3314C17.314 14.2332 17.9154 13.5013 17.8843 12.4669C17.8533 11.4446 17.1317 10.7454 16.1424 10.7782ZM15.7273 13.117C15.6109 12.9493 15.5527 12.749 15.5605 12.5445C15.5605 12.0334 15.8553 11.6981 16.2743 11.7227C16.4567 11.7268 16.6274 11.8249 16.736 11.9803C16.9571 12.291 16.9571 12.8144 16.7321 13.1252C16.6972 13.1661 16.6623 13.2069 16.6196 13.2397C16.3403 13.4686 15.9407 13.4114 15.7273 13.117ZM14.2462 12.4628C14.2458 12.2515 14.2453 12.0403 14.2453 11.829C14.2453 11.6165 14.2458 11.4036 14.2462 11.1905C14.2471 10.7639 14.2479 10.3367 14.2453 9.91131C14.2453 9.5842 14.0475 9.37976 13.7526 9.38385C13.4656 9.38385 13.2755 9.58829 13.2716 9.90314C13.269 10.0311 13.2699 10.1573 13.2707 10.284C13.2712 10.3476 13.2716 10.4114 13.2716 10.4756V13.7262C13.2716 13.9838 13.419 14.2005 13.613 14.2537C13.6595 14.266 13.71 14.27 13.7565 14.27C14.032 14.2619 14.2492 14.0206 14.2453 13.7303C14.2479 13.3078 14.2471 12.8853 14.2462 12.4628ZM7.98157 13.2751C7.79028 13.2756 7.59619 13.276 7.39811 13.276C7.46019 13.1861 7.49898 13.1329 7.54166 13.0798C8.04987 12.4051 8.55809 11.7264 9.06631 11.0435C9.21373 10.8432 9.36115 10.6428 9.45426 10.4097C9.55901 10.1399 9.4465 9.88227 9.18269 9.78823C9.06243 9.75552 8.94216 9.73916 8.81802 9.74325C8.12746 9.73916 7.43303 9.73916 6.74248 9.74325C6.64549 9.74325 6.5485 9.75552 6.45539 9.78005C6.30797 9.81685 6.19158 9.94361 6.15667 10.099C6.10624 10.328 6.24202 10.561 6.46315 10.6142C6.55626 10.6346 6.65325 10.6469 6.75023 10.6469C6.95973 10.6489 7.17019 10.6489 7.38066 10.6489C7.59112 10.6489 7.80158 10.6489 8.01108 10.651C8.02334 10.6521 8.03614 10.6506 8.04905 10.6491C8.08516 10.6449 8.12216 10.6407 8.15074 10.6919C8.11582 10.7368 8.08091 10.7859 8.04599 10.835C7.44467 11.6364 6.84334 12.4419 6.2459 13.2433C6.09848 13.4437 6.02089 13.6645 6.12951 13.9098C6.23814 14.1551 6.45927 14.2042 6.68428 14.2165C6.81439 14.2252 6.94252 14.2236 7.07149 14.2219C7.12327 14.2212 7.17518 14.2206 7.22742 14.2206C7.38465 14.2206 7.54165 14.2208 7.69852 14.2211C8.16867 14.2218 8.63774 14.2226 9.10898 14.2165C9.44262 14.2124 9.62108 13.9957 9.58616 13.6727C9.55513 13.4151 9.38831 13.2801 9.08183 13.276C8.71977 13.2733 8.35602 13.2742 7.98157 13.2751Z" fill="white"/>
</svg>
