<svg width="133" height="29" viewBox="0 0 133 29" fill="none" xmlns="http://www.w3.org/2000/svg">
<path d="M0.0523336 8.04925C-0.164847 7.25497 0.3133 6.43992 1.12773 6.22534L24.627 0.0510441C25.4379 -0.161803 26.2716 0.310614 26.4888 1.10317L30.8184 16.9508C31.0355 17.7451 30.5574 18.5601 29.743 18.7747L6.24372 24.949C5.4328 25.1618 4.59911 24.6894 4.38193 23.8969L0.0523336 8.04925Z" fill="#40CEFF"/>
<path d="M21.5409 28.9983H5.06148C4.22253 28.9983 3.54297 28.3321 3.54297 27.4945V9.0028C3.54297 8.17217 4.21903 7.49902 5.06148 7.49902H29.3541C30.1931 7.49902 30.8726 8.16525 30.8726 9.0028V27.4963C30.8726 28.3269 30.1966 29.0001 29.3541 29.0001H26.0596" fill="black"/>
<path d="M18.6736 22.3601L17.868 20.3718L14.5192 12.1106H11.7431L6.67969 24.9558H9.4645L10.046 23.3742V23.3725L10.5364 22.0383H10.5399L11.9656 18.188L13.1005 15.1078L14.8187 19.6779L15.7347 22.0383L16.6104 24.2896V24.2913L16.8696 24.9558H19.7263L18.6736 22.3601Z" fill="white"/>
<path d="M27.7358 13.9898V12.1105H25.529H22.9036H20.7388V13.9898H22.9036V23.0764H20.7388V24.9557H27.7358V23.0764H25.529V13.9898H27.7358Z" fill="white"/>
<path d="M19.7754 20.6765L15.1848 24.3451C15.1043 24.4074 14.9834 24.3521 14.9834 24.2482V22.2893C14.5088 22.1751 13.9921 22.1284 13.4579 22.182C12.8992 22.2374 12.323 22.3966 11.78 22.6648C11.7275 22.6873 11.6767 22.7133 11.6241 22.7427C11.3614 22.8829 11.1092 23.0473 10.871 23.2376C10.5715 23.473 10.2965 23.7464 10.0531 24.0527C9.83415 24.3278 9.64499 24.6324 9.48736 24.9577H8.85859C8.84633 24.5268 8.88661 24.089 8.98294 23.6478C9.15984 22.8448 9.52589 22.0471 10.0741 21.3237C10.0776 21.3185 10.0829 21.3099 10.0899 21.3047C10.5417 20.7146 11.1092 20.1764 11.7818 19.7282C11.9236 19.6313 12.069 19.5414 12.2214 19.4548C13.0393 18.9841 13.9851 18.6519 14.9852 18.4823V16.9162C14.9852 16.8141 15.106 16.757 15.1866 16.8211L19.7771 20.4897C19.8367 20.5364 19.8367 20.6281 19.7754 20.6765Z" fill="#4F85FF"/>
<path fill-rule="evenodd" clip-rule="evenodd" d="M96.1531 13.0027L97.9747 14.053V16.796C98.674 16.5716 99.448 16.4518 100.343 16.4518C103.744 16.4518 104.683 18.1318 104.683 20.2018V24.25H102.255V20.5001C102.255 19.5263 102.255 18.6264 100.207 18.6264C99.3706 18.6264 98.643 18.7462 97.9747 18.9552V24.2475H95.5468V13.0001H96.1531V13.0027ZM89.0678 20.4259C90.8275 20.4693 91.4648 20.5763 91.4648 21.2799C91.4648 21.6547 91.2971 22.1518 89.1271 22.1518C87.579 22.1518 85.7419 21.9122 84.1035 21.5527V24.0714C85.5458 24.3697 87.063 24.5507 88.6575 24.5507H89.2045C93.0748 24.5507 94.1972 23.0211 94.1972 21.3105V21.1168C94.1972 18.1622 90.7062 18.0577 89.2639 18.0271C87.548 17.9837 86.8798 17.8767 86.8798 17.1578C86.8798 16.8136 87.032 16.3191 89.2329 16.3191C90.7217 16.3191 92.1614 16.5307 93.6347 16.8748V14.3995C92.3911 14.0859 91.0545 13.9049 89.6741 13.9049H89.1271C85.2723 13.9049 84.1499 15.4345 84.1499 17.1578V17.3515C84.1499 20.2755 87.5197 20.3801 89.0678 20.4259ZM43.0323 22.1952L40.1786 18.2515V24.2499H37.4487V14.2032H40.1811L43.7315 19.3477L47.2818 14.2032H50.0142V24.2499H47.2818V18.2515L44.4281 22.1952H43.0323ZM55.7214 24.5508C52.3207 24.5508 51.3816 22.8708 51.3816 20.8008V20.2018C51.3816 18.1317 52.3233 16.4518 55.7214 16.4518H56.1472C59.6072 16.4518 60.3219 17.5327 60.3219 18.8506V19.0011C60.3219 20.2018 59.9581 21.2495 56.1626 21.2495C55.2518 21.2495 54.4933 21.1756 53.8095 20.9793C53.856 21.8333 54.1578 22.3737 56.1781 22.3737C57.1354 22.3737 58.668 22.2233 59.7156 21.9251V24.1735C58.668 24.4131 57.1663 24.5483 56.013 24.5483H55.7214V24.5508ZM53.8843 19.3758C54.4752 19.5262 55.128 19.6001 56.0104 19.6001C57.7856 19.6001 57.8914 19.2993 57.8914 19.0291C57.8914 18.7436 57.8011 18.3255 56.1601 18.3255C54.5526 18.328 54.0366 18.7028 53.8843 19.3758ZM61.535 20.8008C61.535 22.8708 62.4742 24.5508 65.8748 24.5508V24.5483H66.1664C67.3197 24.5483 68.8214 24.4131 69.869 24.1735V21.9251C68.8214 22.2233 67.2888 22.3737 66.3315 22.3737C64.3112 22.3737 64.0094 21.8333 63.9629 20.9793C64.6467 21.1756 65.4052 21.2495 66.3161 21.2495C70.1115 21.2495 70.4753 20.2018 70.4753 19.0011V18.8506C70.4753 17.5327 69.7606 16.4518 66.3006 16.4518H65.8748C62.4767 16.4518 61.535 18.1317 61.535 20.2018V20.8008ZM66.1638 19.6001C65.2814 19.6001 64.6286 19.5262 64.0378 19.3758C64.19 18.7028 64.706 18.328 66.3135 18.3255C67.9545 18.3255 68.0448 18.7436 68.0448 19.0291C68.0448 19.2993 67.939 19.6001 66.1638 19.6001ZM76.7888 25.0759C75.9993 26.8298 75.2717 27.9999 73.2514 27.9999C72.8566 27.9999 72.3406 27.9541 71.9768 27.8495V25.7209C72.3251 25.7948 72.8411 25.8254 73.1456 25.8254C74.1467 25.8254 74.3454 25.4354 74.6627 24.7751L74.7685 24.5202L71.1408 17.3516V16.7526H73.4165L75.829 21.925L77.9551 16.7526H80.2308V17.3516L76.7888 25.0759ZM114.429 24.2501H115.032V19.7532C115.032 17.6093 113.82 16.4545 110.435 16.4545C109.281 16.4545 107.78 16.5896 106.732 16.8292V19.0777C107.78 18.7794 109.281 18.629 110.36 18.629C112.365 18.629 112.576 19.0777 112.607 19.873C111.895 19.6767 111.09 19.5875 110.073 19.5875C106.915 19.5875 105.899 20.6225 105.899 21.8819V22.0323C105.899 23.3655 106.838 24.5509 110.117 24.5509C111.513 24.5509 112.592 24.3113 113.608 23.7862L114.429 24.2501ZM112.607 21.6575V22.3611C111.923 22.5702 111.196 22.6747 110.375 22.6772C108.448 22.6772 108.327 22.407 108.327 22.0476C108.327 21.7468 108.417 21.3873 110.223 21.3873C111.165 21.3873 111.923 21.4765 112.607 21.6575ZM122.322 18.8227C121.88 18.7488 121.411 18.7029 120.91 18.7029C120.074 18.7029 119.347 18.8074 118.678 19.019V24.2527H116.25V16.7553H116.857L117.677 17.2345C118.647 16.7094 119.726 16.4545 121.047 16.4545C121.517 16.4545 121.942 16.5004 122.322 16.559V18.8227ZM123.232 20.8008C123.232 22.8708 124.171 24.5508 127.572 24.5508V24.5483H127.864C129.017 24.5483 130.519 24.4131 131.566 24.1735V21.9251C130.519 22.2233 128.986 22.3737 128.029 22.3737C126.009 22.3737 125.707 21.8333 125.66 20.9793C126.344 21.1756 127.103 21.2495 128.013 21.2495C131.809 21.2495 132.173 20.2018 132.173 19.0011V18.8506C132.173 17.5327 131.458 16.4518 127.998 16.4518H127.572C124.174 16.4518 123.232 18.1317 123.232 20.2018V20.8008ZM127.861 19.6001C126.979 19.6001 126.326 19.5262 125.735 19.3758C125.887 18.7028 126.403 18.328 128.011 18.3255C129.652 18.3255 129.742 18.7436 129.742 19.0291C129.742 19.2993 129.636 19.6001 127.861 19.6001Z" fill="#0045DC"/>
</svg>
